<?xml version="1.0" standalone="no"?>
<!DOCTYPE svg PUBLIC "-//W3C//DTD SVG 20010904//EN"
 "http://www.w3.org/TR/2001/REC-SVG-20010904/DTD/svg10.dtd">
<svg version="1.0" xmlns="http://www.w3.org/2000/svg"
 width="1800.000000pt" height="1800.000000pt" viewBox="0 0 1800.000000 1800.000000"
 preserveAspectRatio="xMidYMid meet">
<metadata>
Created by potrace 1.13, written by Peter Selinger 2001-2015
</metadata>
<g transform="translate(0.000000,1800.000000) scale(0.100000,-0.100000)"
fill="#000000" stroke="none">
<path d="M0 9000 l0 -9000 9000 0 9000 0 0 9000 0 9000 -9000 0 -9000 0 0
-9000z m3726 4000 l1092 0 20 -22 c11 -13 49 -56 84 -97 35 -41 160 -188 278
-326 118 -138 305 -356 415 -485 110 -128 217 -252 237 -274 21 -23 38 -47 38
-53 0 -7 9 -13 20 -13 20 0 20 -7 20 -1677 l-1 -1678 -207 -241 c-233 -271
-551 -642 -621 -723 -25 -30 -78 -91 -116 -135 -39 -45 -109 -126 -155 -181
-47 -55 -87 -102 -90 -105 -3 -3 -59 -68 -125 -145 -66 -77 -122 -142 -125
-145 -3 -3 -27 -30 -53 -61 l-48 -57 1 -582 c1 -321 -2 -586 -7 -589 -4 -3
-35 -37 -68 -76 -33 -38 -72 -83 -86 -100 -15 -16 -64 -74 -110 -128 l-84 -98
-332 -2 c-285 -2 -333 0 -341 13 -8 13 -126 152 -270 319 -26 30 -49 58 -50
62 -2 5 -10 9 -18 9 -12 0 -14 87 -14 586 l0 587 -47 56 c-26 31 -73 85 -104
121 -31 36 -141 164 -245 285 -381 445 -428 500 -434 505 -3 3 -27 32 -55 65
-27 33 -52 62 -55 65 -3 3 -60 68 -125 145 -66 77 -132 153 -147 170 -14 16
-94 109 -177 205 l-150 175 0 1683 c-1 1142 2 1690 9 1703 6 10 21 19 33 19
17 0 50 31 123 117 54 65 133 156 174 204 41 47 121 140 177 205 56 65 203
238 328 384 274 320 274 321 300 315 11 -3 511 -5 1111 -5z m4369 -2042 c4
-29 5 -78 3 -108 l-3 -55 -122 -3 -123 -3 0 -414 0 -415 -110 0 -110 0 0 415
0 415 -125 0 -125 0 0 110 0 110 354 0 355 0 6 -52z m742 -207 c1 -139 4 -255
6 -257 2 -2 39 7 83 20 43 12 112 31 152 41 l72 17 0 219 0 219 110 0 110 0 0
-525 0 -525 -110 0 -110 0 0 190 c0 174 -1 190 -17 190 -10 -1 -79 -18 -153
-38 l-135 -38 -5 -149 -5 -150 -107 -3 -108 -3 0 526 0 526 108 -3 107 -3 2
-254z m1723 149 l0 -110 -198 0 c-141 0 -201 -3 -210 -12 -8 -8 -12 -54 -12
-141 0 -114 2 -128 16 -123 9 3 28 9 42 12 15 4 73 19 128 35 56 16 109 29
118 29 15 0 16 -13 14 -112 l-3 -113 -157 -40 -158 -40 0 -34 c0 -68 10 -71
227 -71 l193 0 0 -110 0 -110 -205 0 c-181 0 -211 2 -258 20 -67 25 -122 77
-153 144 -23 50 -24 56 -24 358 0 264 2 314 17 350 20 51 53 94 98 126 64 46
97 51 318 52 l207 0 0 -110z m-2604 -1587 c50 -27 99 -76 127 -128 21 -38 22
-54 25 -351 3 -294 2 -313 -18 -366 -26 -71 -87 -132 -157 -158 -45 -17 -78
-20 -197 -20 -177 0 -219 12 -292 84 -81 81 -84 99 -84 440 0 343 3 359 88
443 74 74 109 83 307 80 142 -2 165 -5 201 -24z m1298 -3 c27 -14 64 -43 83
-65 58 -68 67 -96 67 -230 1 -115 0 -122 -29 -174 -31 -57 -77 -100 -134 -127
-27 -13 -356 -104 -376 -104 -3 0 -5 -72 -5 -160 l0 -160 -110 0 -110 0 0 525
0 526 283 -3 c278 -3 283 -3 331 -28z m2058 13 c109 -42 177 -138 186 -262 5
-81 12 -77 -124 -73 l-94 3 0 45 c0 75 -18 84 -158 84 -86 0 -123 -4 -138 -14
-18 -13 -19 -31 -22 -256 -2 -133 -1 -257 2 -276 12 -59 23 -64 161 -64 148 0
155 5 155 108 l0 63 108 -3 107 -3 0 -85 c-1 -107 -30 -179 -96 -232 -74 -59
-110 -68 -279 -68 -136 0 -154 2 -202 24 -61 27 -110 73 -141 130 -21 40 -22
52 -22 371 0 318 1 331 21 370 32 59 80 104 138 130 46 22 66 24 203 24 119 1
162 -3 195 -16z m948 -380 c0 -355 2 -398 17 -415 14 -16 35 -18 210 -18 l193
0 0 -110 0 -110 -204 0 c-183 0 -210 2 -259 21 -62 24 -118 74 -150 133 -21
40 -22 51 -25 469 l-3 427 111 0 110 0 0 -397z m1160 0 c1 -315 3 -402 14
-415 19 -26 250 -27 278 -1 17 15 18 41 18 415 l0 398 110 0 110 0 0 -403 c0
-475 -1 -479 -85 -563 -74 -74 -120 -86 -313 -82 -130 3 -153 6 -194 26 -61
30 -105 75 -134 137 l-24 50 0 418 0 417 110 0 110 0 0 -397z m1495 380 c66
-24 147 -104 169 -169 10 -31 16 -82 16 -148 l0 -101 34 -22 c43 -28 79 -75
101 -135 14 -37 16 -70 14 -155 -4 -96 -7 -113 -31 -154 -34 -57 -87 -105
-145 -130 -40 -17 -72 -19 -319 -19 l-274 0 0 525 0 525 193 0 c158 0 201 -3
242 -17z"/>
<path d="M2800 12935 c46 -19 780 -301 848 -327 l53 -20 207 77 c317 119 313
117 537 200 116 42 212 79 214 81 2 2 -423 4 -945 3 -825 0 -944 -2 -914 -14z"/>
<path d="M2640 12934 c0 -4 35 -132 126 -454 13 -47 31 -113 40 -147 10 -37
22 -63 29 -63 8 0 141 48 297 106 430 160 478 179 478 185 0 3 -26 15 -57 26
-32 12 -146 56 -253 98 -107 43 -217 85 -245 95 -27 10 -115 44 -195 75 -195
76 -220 85 -220 79z"/>
<path d="M4530 12839 c-129 -48 -291 -109 -360 -135 -69 -25 -185 -69 -258
-97 l-133 -50 398 -154 c219 -84 402 -151 408 -149 5 2 19 35 29 72 53 193 79
283 120 430 50 174 50 175 39 173 -5 -1 -114 -41 -243 -90z"/>
<path d="M2504 12839 c-38 -45 -85 -100 -104 -122 -52 -59 -59 -67 -135 -158
-38 -45 -106 -124 -150 -174 -44 -51 -127 -148 -185 -215 -58 -68 -123 -144
-145 -169 -90 -103 -147 -172 -144 -176 4 -3 757 274 1037 381 50 20 92 41 92
47 0 7 -22 89 -48 182 -27 94 -68 241 -93 327 -24 87 -47 158 -50 158 -3 0
-37 -37 -75 -81z"/>
<path d="M4817 12853 c-49 -179 -167 -602 -172 -615 -4 -10 36 -30 162 -77
148 -56 308 -118 847 -328 76 -29 140 -52 142 -51 1 2 -72 92 -164 199 -330
386 -765 894 -782 912 -16 18 -18 16 -33 -40z"/>
<path d="M3590 12489 c-58 -22 -170 -64 -250 -93 -134 -50 -443 -166 -481
-181 -19 -7 -20 -2 64 -300 161 -573 214 -760 272 -970 24 -88 69 -248 100
-355 30 -107 55 -200 55 -206 0 -7 78 -71 174 -144 l175 -132 128 98 c70 54
155 119 188 144 l60 46 43 155 c24 85 68 244 99 354 31 110 73 261 94 335 21
74 72 259 114 410 42 151 92 329 111 395 19 66 34 126 34 135 0 9 -12 20 -27
26 -16 6 -211 81 -434 167 -224 87 -408 157 -410 156 -2 0 -51 -18 -109 -40z"/>
<path d="M2440 12061 c-184 -70 -454 -171 -600 -225 -146 -54 -266 -99 -268
-101 -2 -2 63 -54 145 -116 81 -62 186 -142 233 -178 80 -62 614 -469 963
-736 309 -235 361 -274 365 -271 3 4 -11 58 -94 351 -19 66 -43 152 -54 190
-10 39 -53 189 -94 335 -41 146 -109 389 -151 540 -92 331 -95 340 -103 339
-4 -1 -158 -59 -342 -128z"/>
<path d="M4625 12159 c-5 -15 -73 -255 -145 -514 -23 -82 -61 -220 -85 -305
-230 -818 -245 -873 -240 -878 2 -2 106 74 232 169 125 95 336 254 468 354
132 100 319 242 415 315 96 73 256 193 355 267 209 157 190 142 183 148 -3 3
-115 48 -249 99 -194 75 -830 320 -911 351 -11 4 -20 2 -23 -6z"/>
<path d="M1520 10081 l0 -1620 158 119 c86 66 310 236 497 377 890 673 1224
926 1253 948 1 1 -20 81 -47 176 -27 96 -54 192 -60 214 -8 30 -22 49 -58 76
-46 34 -236 179 -591 449 -90 69 -234 179 -321 245 -87 66 -285 217 -441 335
-155 118 -307 234 -336 258 l-54 43 0 -1620z"/>
<path d="M5585 11468 c-159 -121 -423 -320 -585 -442 -658 -497 -816 -617
-848 -644 -27 -23 -37 -44 -66 -147 -18 -66 -48 -171 -66 -234 l-32 -114 33
-26 c33 -26 264 -203 434 -331 50 -38 142 -108 206 -157 63 -48 194 -148 290
-220 96 -73 251 -192 344 -263 94 -72 198 -152 233 -178 35 -26 127 -96 205
-156 l142 -109 3 812 c1 446 1 1175 0 1619 l-3 809 -290 -219z"/>
<path d="M3899 10193 c-78 -60 -144 -112 -145 -118 -3 -10 169 -145 184 -145
4 0 22 53 40 118 17 64 41 147 51 185 11 37 18 67 16 67 -2 0 -67 -48 -146
-107z"/>
<path d="M3390 10263 c0 -21 84 -313 90 -313 13 0 161 119 158 127 -5 15 -248
198 -248 186z"/>
<path d="M3597 9964 c-56 -44 -97 -83 -97 -92 0 -10 20 -87 44 -172 24 -85 70
-247 101 -360 31 -113 60 -211 64 -218 4 -7 38 99 76 235 38 137 81 293 97
348 49 174 55 150 -63 242 -57 44 -109 82 -114 85 -6 4 -54 -27 -108 -68z"/>
<path d="M3269 9715 c-97 -73 -259 -196 -360 -272 -272 -206 -488 -370 -829
-627 -168 -127 -362 -274 -433 -327 l-127 -98 62 -73 c35 -40 65 -75 68 -78 3
-3 30 -34 60 -70 30 -36 57 -67 60 -70 3 -3 84 -97 180 -210 96 -113 177 -207
180 -210 3 -3 30 -34 60 -70 30 -36 57 -67 60 -70 3 -3 59 -68 125 -145 66
-77 132 -153 146 -170 15 -16 96 -111 180 -210 84 -99 156 -182 159 -185 3 -3
41 -47 85 -99 l79 -94 33 119 c19 65 44 157 57 204 33 118 288 1031 341 1220
171 607 219 778 222 800 3 15 -18 107 -45 205 -89 321 -184 660 -186 662 0 0
-80 -59 -177 -132z"/>
<path d="M3970 9826 c0 -6 -61 -226 -154 -559 l-76 -268 136 -482 c74 -265
158 -563 185 -662 28 -99 79 -281 114 -405 35 -124 98 -350 141 -503 43 -152
81 -276 85 -275 6 3 158 177 448 517 58 68 155 181 215 250 169 197 245 284
382 446 71 83 133 155 139 161 26 27 280 326 282 332 1 4 -53 48 -120 99 -127
95 -382 289 -692 526 -99 76 -247 189 -330 252 -169 128 -357 272 -594 453
-89 68 -161 121 -161 118z"/>
<path d="M3707 8875 c-13 -45 -221 -787 -322 -1150 -60 -216 -253 -908 -283
-1014 -17 -57 -35 -106 -41 -110 -10 -6 -12 -241 -11 -988 l0 -133 650 0 650
0 0 115 0 115 -645 0 -645 0 0 25 0 25 645 0 645 0 0 170 0 170 -645 0 -645 0
0 25 0 25 645 0 645 0 0 170 0 170 -645 0 -645 0 0 25 0 25 645 0 645 0 0 44
c0 24 -15 97 -34 163 -19 65 -52 183 -74 263 -23 80 -71 251 -107 380 -36 129
-79 282 -95 340 -16 58 -59 211 -95 340 -37 129 -94 332 -127 450 -33 118 -70
251 -83 295 -15 55 -24 74 -28 60z"/>
<path d="M3091 5413 c40 -51 274 -321 292 -336 18 -16 46 -17 327 -17 l308 1
48 57 c27 31 89 104 139 162 49 58 92 107 95 110 3 3 11 13 19 23 13 16 -18
17 -614 17 -595 0 -627 -1 -614 -17z"/>
<path d="M7470 10900 c0 -19 7 -20 125 -20 l125 0 0 -416 c0 -390 1 -415 18
-412 16 3 17 32 20 416 l2 412 120 0 c113 0 120 1 120 20 0 19 -7 20 -265 20
-258 0 -265 -1 -265 -20z"/>
<path d="M8710 10485 c0 -380 2 -435 15 -435 13 0 15 21 15 129 0 137 4 161
26 161 7 0 60 13 116 29 221 61 334 91 346 91 9 0 12 -48 12 -205 0 -198 1
-205 20 -205 20 0 20 7 20 435 0 428 0 435 -20 435 -19 0 -20 -7 -20 -208 l0
-209 -232 -62 c-128 -34 -241 -61 -251 -61 -16 0 -18 17 -17 253 0 138 0 260
0 270 0 9 -7 17 -15 17 -13 0 -15 -55 -15 -435z"/>
<path d="M10123 10905 c-43 -19 -91 -71 -104 -114 -7 -23 -9 -141 -7 -327 l3
-291 25 -36 c14 -22 46 -48 74 -62 47 -23 60 -25 204 -25 141 0 153 1 150 18
-3 15 -21 18 -163 22 -224 7 -250 26 -257 184 l-3 80 155 40 c119 32 156 45
158 59 5 23 -4 22 -163 -22 -77 -21 -141 -38 -142 -37 -1 1 -3 86 -4 190 -1
210 4 233 67 274 31 20 45 22 194 22 153 0 160 1 160 20 0 19 -7 20 -157 20
-111 -1 -167 -5 -190 -15z"/>
<path d="M7553 9225 c-42 -21 -57 -36 -77 -78 l-26 -51 0 -284 c0 -313 1 -321
63 -379 18 -17 47 -35 66 -42 49 -16 284 -14 324 3 40 17 95 69 107 102 6 14
10 157 10 321 0 285 -1 297 -22 334 -12 21 -40 51 -62 66 -39 27 -47 28 -186
31 -140 3 -147 2 -197 -23z m357 -37 c18 -13 43 -36 54 -51 20 -27 21 -40 21
-322 0 -282 -1 -295 -21 -322 -11 -15 -36 -38 -54 -50 -30 -21 -44 -23 -174
-23 -158 0 -188 10 -226 72 -19 31 -20 51 -20 318 0 318 3 333 69 377 31 21
45 23 176 23 131 0 145 -2 175 -22z"/>
<path d="M7602 9104 c-22 -15 -22 -17 -22 -289 0 -331 -14 -305 161 -305 100
0 118 3 132 18 15 16 17 51 17 290 0 327 13 302 -155 302 -84 0 -116 -4 -133
-16z"/>
<path d="M8730 8814 c0 -409 1 -435 18 -432 15 3 17 19 20 150 l3 147 32 10
c17 5 88 24 157 41 238 59 267 70 305 111 45 50 59 105 51 204 -7 97 -37 148
-106 183 -42 21 -56 22 -262 22 l-218 0 0 -436z m464 382 c55 -23 80 -69 85
-154 2 -39 0 -88 -3 -107 -8 -41 -49 -93 -85 -106 -25 -10 -404 -109 -415
-109 -3 0 -6 110 -6 245 l0 245 195 0 c144 0 204 -4 229 -14z"/>
<path d="M8860 8980 c0 -77 4 -140 9 -140 29 0 289 75 304 88 13 12 17 31 17
84 0 105 -6 108 -185 108 l-145 0 0 -140z"/>
<path d="M10942 9225 c-38 -19 -59 -39 -78 -70 l-25 -44 3 -308 3 -308 28 -37
c46 -60 84 -73 230 -76 151 -4 209 10 256 63 48 55 67 145 31 145 -16 0 -20
-7 -20 -31 0 -38 -31 -91 -70 -119 -25 -18 -44 -20 -171 -20 -133 0 -145 2
-184 25 -68 39 -70 51 -70 375 0 312 1 318 63 365 24 18 43 20 184 20 179 0
197 -6 233 -83 11 -23 26 -42 33 -42 21 0 7 56 -24 97 -44 58 -73 67 -229 71
-135 3 -142 2 -193 -23z"/>
<path d="M12130 8885 c0 -399 0 -401 59 -454 49 -45 80 -51 246 -51 144 0 156
1 153 18 -3 15 -22 18 -172 22 l-168 5 -39 44 -39 44 0 358 c0 348 -1 359 -20
369 -20 11 -20 8 -20 -355z"/>
<path d="M13290 8888 c0 -414 1 -418 80 -473 43 -30 46 -30 189 -33 161 -4
194 4 245 54 55 55 56 65 56 456 0 337 -1 359 -17 356 -17 -3 -18 -31 -23
-369 -6 -404 -4 -397 -73 -440 -29 -18 -47 -19 -184 -17 l-152 3 -31 30 c-18
17 -36 41 -41 54 -5 13 -10 175 -10 360 0 185 -2 346 -5 359 -4 12 -13 22 -20
22 -12 0 -14 -60 -14 -362z"/>
<path d="M14570 8816 l0 -434 23 -6 c12 -3 115 -5 229 -3 l207 2 42 30 c62 44
89 101 89 190 0 103 -8 129 -51 179 -28 32 -51 47 -86 56 -26 7 -49 14 -50 15
-2 1 6 19 17 40 22 44 28 173 10 234 -13 46 -75 109 -120 121 -19 5 -97 10
-172 10 l-138 0 0 -434z m361 345 l39 -44 0 -105 0 -105 -43 -42 c-41 -39 -51
-43 -168 -68 -68 -15 -130 -27 -136 -27 -10 0 -13 51 -13 221 l0 221 141 -4
141 -3 39 -44z m142 -400 l42 -40 3 -101 c4 -94 2 -104 -21 -139 -43 -65 -68
-71 -291 -71 l-196 0 0 155 0 154 38 9 c20 5 93 23 162 40 69 17 147 31 173
31 42 1 53 -3 90 -38z"/>
<path d="M14700 9000 c0 -109 2 -120 18 -120 28 0 135 30 149 42 9 7 13 36 13
88 0 100 -10 110 -108 110 l-72 0 0 -120z"/>
<path d="M14823 8677 l-123 -31 0 -73 0 -73 143 0 c184 0 187 2 187 109 0 46
-5 82 -12 89 -18 18 -60 13 -195 -21z"/>
</g>
</svg>
